# xmcd
#
# Track frame offsets: 
#        150
#        16203
#        35492
#        46980
#        61478
#        79575
#        91231
#        105214
#        121864
#        132570
#        145192
#        176546
#        191830
#
# Disc length: 2787 seconds
#
# Revision: 1
# Processed by: cddbd v1.5.2PL0 Copyright (c) Steve Scherf et al.
# Submitted via: ExactAudioCopy v0.95b4
#
DISCID=a60ae10d
DTITLE=WINEHOUSE Amy - Back to black
DYEAR=2006
DGENRE=Jazz
TTITLE0=Rehab
TTITLE1=You know I'm no good
TTITLE2=Me and Mr Jones
TTITLE3=Just friends
TTITLE4=Back to black
TTITLE5=Love is a losing game
TTITLE6=Tears dry on their own
TTITLE7=Wake up alone
TTITLE8=Some unholy war
TTITLE9=He can only hold her
TTITLE10=Rehab (Hotchip vocal)
TTITLE11=You know I'm no good (Ghost face killak version)
TTITLE12=Back to black (Rumble strips)
EXTD=YEAR: 2006
EXTT0=
EXTT1=
EXTT2=
EXTT3=
EXTT4=
EXTT5=
EXTT6=
EXTT7=
EXTT8=
EXTT9=
EXTT10=
EXTT11=
EXTT12=
PLAYORDER=
